Coordinates
version=1
nRows=14
nColumns=40
inDegrees=yes

Units are S.I. units (second, meters, Newtons, ...)
If the header above contains a line with 'inDegrees', this indicates whether rotational values are in degrees (yes) or radians (no).

endheader
time	pelvis_tilt	pelvis_list	pelvis_rotation	pelvis_tx	pelvis_ty	pelvis_tz	hip_flexion_r	hip_adduction_r	hip_rotation_r	knee_angle_r	knee_angle_r_beta	ankle_angle_r	subtalar_angle_r	mtp_angle_r	hip_flexion_l	hip_adduction_l	hip_rotation_l	knee_angle_l	knee_angle_l_beta	ankle_angle_l	subtalar_angle_l	mtp_angle_l	lumbar_extension	lumbar_bending	lumbar_rotation	arm_flex_r	arm_add_r	arm_rot_r	elbow_flex_r	pro_sup_r	wrist_flex_r	wrist_dev_r	arm_flex_l	arm_add_l	arm_rot_l	elbow_flex_l	pro_sup_l	wrist_flex_l	wrist_dev_l
      3.91666667	      3.81834266	     -2.26391236	     -1.54911986	     -0.39784060	      1.20168950	      0.02067111	     32.36970599	     -0.89132335	     -0.37635861	     55.21850668	      0.96374475	     -5.31508841	    -26.65490127	      0.00000000	     69.35229817	     -0.15439607	     13.58764232	     95.66580719	      1.66968332	     18.96245233	    -25.04056463	      0.00000000	    -67.79818951	      0.99030702	      7.64396914	     75.83454869	     -9.70535463	      1.13417107	     54.44436898	     10.02405548	      0.00000000	      0.00000000	     89.81253568	     -1.42555069	     32.04074531	     29.58590288	     83.59557376	      0.00000000	      0.00000000
      3.92500000	      3.78532592	     -2.27378213	     -1.52361392	     -0.39815659	      1.20174961	      0.02082643	     33.48620738	     -0.99588150	     -0.33588346	     58.31971804	      1.01787110	     -4.60113699	    -26.58094458	      0.00000000	     68.22846811	     -0.29021837	     13.46161570	     92.76838190	      1.61911371	     18.52604220	    -25.89427680	      0.00000000	    -67.79818474	      1.02872041	      7.67321917	     75.91470253	     -9.56318684	      0.90785017	     54.42977513	      9.75260905	      0.00000000	      0.00000000	     89.81782181	     -1.37384839	     31.80811321	     29.62946350	     83.69393632	      0.00000000	      0.00000000
      3.93333333	      3.95859171	     -2.91792411	     -1.42427925	     -0.39827624	      1.20237073	      0.02152774	     34.24970701	     -0.44625494	     -0.63403863	     61.09776231	      1.06635712	     -4.26042635	    -26.70243131	      0.00000000	     66.73487111	     -0.86665541	     13.95218029	     89.73167353	      1.56611315	     18.30766057	    -25.92089819	      0.00000000	    -68.04677827	      1.40665817	      8.27466400	     75.99598218	     -9.56192550	      0.92404344	     54.38716026	      9.76004767	      0.00000000	      0.00000000	     89.82482649	     -1.35576030	     31.69291932	     29.69238233	     83.69530407	      0.00000000	      0.00000000
      3.94166667	      3.95074480	     -2.55723989	     -1.41741819	     -0.39851337	      1.20227309	      0.02123132	     35.64214216	     -0.93393766	     -0.36087087	     64.49520255	      1.12565364	     -3.47308196	    -26.73355758	      0.00000000	     65.20580941	     -0.79572992	     13.53194436	     86.69660361	      1.51314118	     17.50542353	    -26.95912238	      0.00000000	    -68.02072131	      1.30261166	      8.00079881	     76.07107083	     -9.60246215	      0.99477624	     54.27120149	      9.91303709	      0.00000000	      0.00000000	     89.82934704	     -1.20735880	     31.36177489	     29.52932450	     83.73429596	      0.00000000	      0.00000000
      3.95000000	      4.14902696	     -3.18344658	     -1.33499848	     -0.39849185	      1.20256705	      0.02192414	     36.64317504	     -0.41712703	     -0.67345227	     67.50180501	      1.17812875	     -3.07054236	    -26.87580735	      0.00000000	     63.41932900	     -1.43513214	     13.99280190	     83.42149252	      1.45597971	     16.85642117	    -26.98067420	      0.00000000	    -68.24237019	      1.66167647	      8.66019875	     76.15733464	     -9.66860080	      0.99330977	     54.19218837	      9.92650534	      0.00000000	      0.00000000	     89.83067552	     -1.07704061	     31.28184060	     29.45799370	     83.76322315	      0.00000000	      0.00000000
      3.95833333	      4.21678164	     -2.95420314	     -1.43755582	     -0.39858464	      1.20276536	      0.02182215	     38.07226393	     -0.69870139	     -0.36319684	     70.77296084	      1.23522119	     -2.65596881	    -26.82577686	      0.00000000	     61.54455036	     -1.57475182	     13.58575447	     80.07838858	      1.39763154	     15.44693380	    -28.25709298	      0.00000000	    -68.31639670	      1.54878592	      8.53232482	     76.22021883	     -9.70241662	      1.17226215	     54.19704495	      9.95968269	      0.00000000	      0.00000000	     89.83555098	     -0.97889666	     30.89774992	     29.27621434	     83.90794228	      0.00000000	      0.00000000
      3.96666667	      4.38427576	     -3.61498717	     -1.34637126	     -0.39848375	      1.20308062	      0.02247870	     39.25617120	     -0.18976582	     -0.77552975	     73.73129691	      1.28685389	     -2.29973489	    -26.91892985	      0.00000000	     59.58768474	     -2.29219255	     14.02105391	     76.82855302	      1.34091121	     14.62250674	    -28.13730991	      0.00000000	    -68.51374164	      1.94824912	      9.18980315	     76.29222455	     -9.73307248	      1.22069382	     54.12636807	      9.97188956	      0.00000000	      0.00000000	     89.83811557	     -0.89945990	     30.84064103	     29.15524013	     83.92802799	      0.00000000	      0.00000000
      3.97500000	      4.43154850	     -4.05615453	     -1.26812271	     -0.39856621	      1.20341033	      0.02272195	     40.71973134	      0.10057731	     -0.98261658	     76.73946646	      1.33935636	     -1.93216176	    -26.98139711	      0.00000000	     57.57381467	     -2.83048553	     14.34670406	     73.44473682	      1.28185248	     13.45404444	    -28.09088899	      0.00000000	    -68.61058832	      2.29631916	      9.65781150	     76.41074626	     -9.78081169	      1.35323407	     54.04256931	      9.99138670	      0.00000000	      0.00000000	     89.84452525	     -0.79920934	     30.68833749	     28.96793505	     83.94076267	      0.00000000	      0.00000000
      3.98333333	      4.86847396	     -3.70857044	     -1.72328688	     -0.39796776	      1.20389612	      0.02298236	     41.97238987	     -0.04632251	     -0.19440570	     80.10684452	      1.39812819	     -0.96052271	    -26.24037482	      0.00000000	     54.99466924	     -3.40327994	     13.22287246	     70.00336999	      1.22178929	     11.62544376	    -29.63381802	      0.00000000	    -68.99780265	      1.81021961	      9.52205170	     76.47546327	     -9.87686892	      1.75291157	     54.03527454	      9.97032447	      0.00000000	      0.00000000	     89.84285953	     -0.71498847	     30.28748629	     28.72111127	     84.07071710	      0.00000000	      0.00000000
      3.99166667	      4.86176703	     -3.76984536	     -1.61027564	     -0.39804078	      1.20400247	      0.02268484	     43.69011707	     -0.23578585	     -0.26264859	     83.07165144	      1.44987383	     -0.36929088	    -25.88407267	      0.00000000	     52.86646906	     -3.61356918	     13.17325559	     66.57601489	      1.16197066	      9.96659796	    -30.19761771	      0.00000000	    -69.01191927	      2.05837551	      9.57647462	     76.59533874	     -9.84273485	      1.90060949	     53.93683526	      9.95602016	      0.00000000	      0.00000000	     89.84592576	     -0.66949442	     30.06005260	     28.54622099	     84.15298888	      0.00000000	      0.00000000
      4.00000000	      4.86655215	     -4.09791635	     -1.60738893	     -0.39805921	      1.20420681	      0.02292144	     45.42224791	     -0.05837515	     -0.38192544	     85.87779478	      1.49885027	      0.12989807	    -25.54885959	      0.00000000	     50.59401146	     -4.11277153	     13.33084526	     63.07887648	      1.10093408	      8.52724946	    -30.52212981	      0.00000000	    -69.05921288	      2.31032277	      9.93785985	     76.72123782	     -9.82242643	      2.06466936	     53.87091979	      9.98554917	      0.00000000	      0.00000000	     89.84829087	     -0.63639593	     29.89774409	     28.38106957	     84.14337050	      0.00000000	      0.00000000
      4.00833333	      4.92824595	     -4.80697605	     -1.59464221	     -0.39765919	      1.20407211	      0.02359981	     47.03207244	      0.48517158	     -0.82524830	     88.47579566	      1.54419394	      0.62806867	    -25.46558552	      0.00000000	     48.50053642	     -5.02684408	     13.61003042	     60.00992637	      1.04737080	      7.66831199	    -30.33000308	      0.00000000	    -69.12143212	      2.70919232	     10.63559845	     76.70953819	     -9.77463163	      2.15148114	     53.84532211	     10.08221544	      0.00000000	      0.00000000	     89.84404606	     -0.61356795	     29.90293489	     28.12414145	     84.02684439	      0.00000000	      0.00000000
      4.01666667	      5.28561022	     -4.66171609	     -1.98454744	     -0.39726383	      1.20501489	      0.02365408	     48.45667739	      0.43804688	     -0.29320739	     91.07898568	      1.58962818	      1.82432898	    -23.85173714	      0.00000000	     45.67518169	     -5.42694390	     13.05160094	     56.70076254	      0.98961499	      5.70404102	    -31.64732916	      0.00000000	    -69.51073918	      2.41672179	     10.71120363	     76.83726183	     -9.85846290	      2.49558888	     53.84201666	      9.96116308	      0.00000000	      0.00000000	     89.84640717	     -0.51216898	     29.55521924	     27.85935854	     84.24418732	      0.00000000	      0.00000000
      4.02500000	      5.20845822	     -5.34643869	     -1.88118493	     -0.39710626	      1.20482058	      0.02409013	     50.29001434	      0.84306634	     -0.80260732	     93.43814616	      1.63080330	      2.43480325	    -23.81364345	      0.00000000	     43.69133403	     -6.30259750	     13.30061155	     53.74577251	      0.93804069	      4.72278453	    -31.31929197	      0.00000000	    -69.46846218	      2.92087532	     11.35628115	     76.85572717	     -9.78871868	      2.59969872	     53.82397985	      9.91877024	      0.00000000	      0.00000000	     89.84174624	     -0.53282010	     29.56838196	     27.63547551	     84.33446291	      0.00000000	      0.00000000
